<?xml version="1.0" standalone="no"?>
<!DOCTYPE svg PUBLIC "-//W3C//DTD SVG 20010904//EN"
 "http://www.w3.org/TR/2001/REC-SVG-20010904/DTD/svg10.dtd">
<svg version="1.0" xmlns="http://www.w3.org/2000/svg"
 width="320.000000pt" height="320.000000pt" viewBox="0 0 320.000000 320.000000"
 preserveAspectRatio="xMidYMid meet">
<metadata>
Created by potrace 1.14, written by Peter Selinger 2001-2017
</metadata>
<g transform="translate(0.000000,320.000000) scale(0.100000,-0.100000)"
fill="#000000" stroke="none">
<path d="M1716 2984 c-3 -9 -4 -20 0 -25 3 -5 0 -9 -7 -9 -7 0 -9 -3 -6 -7 4
-3 2 -12 -4 -20 -9 -10 -8 -13 2 -13 9 0 10 -3 4 -8 -10 -7 -16 -23 -18 -54
-1 -10 -5 -18 -10 -18 -4 0 -5 -5 -2 -10 8 -13 -18 -8 -27 5 -5 6 -8 5 -8 -3
0 -10 -4 -9 -16 3 -13 13 -19 13 -32 3 -12 -10 -14 -10 -8 0 4 7 2 12 -4 12
-15 0 -44 -29 -36 -37 3 -3 1 -12 -5 -20 -6 -7 -9 -22 -6 -33 3 -11 0 -20 -6
-20 -6 0 -7 -3 -4 -7 4 -3 1 -13 -6 -21 -10 -13 -9 -14 3 -7 12 7 13 6 3 -7
-7 -8 -10 -17 -7 -20 2 -3 -2 -8 -11 -12 -11 -4 -14 -2 -9 7 5 8 2 7 -9 -2
-12 -9 -17 -10 -17 -2 0 7 -4 10 -9 7 -5 -3 -11 1 -15 9 -3 8 -1 15 5 15 6 0
8 9 4 21 -5 14 -3 19 3 15 6 -4 8 2 5 14 -3 11 0 20 6 20 9 0 9 5 1 21 -7 11
-14 18 -17 15 -4 -3 -13 0 -21 7 -11 8 -14 8 -9 0 5 -7 -4 -6 -23 3 -16 9 -34
13 -40 9 -5 -3 -10 -2 -10 3 0 6 -10 10 -22 10 -34 1 -62 7 -76 16 -7 4 -12 2
-12 -6 0 -10 -3 -9 -9 1 -8 13 -27 18 -88 23 -7 1 -13 5 -13 9 0 7 -26 6 -34
-2 -4 -4 -80 -333 -90 -391 -7 -40 -17 -53 -27 -37 -6 10 -9 11 -9 2 0 -7 -5
-13 -11 -13 -5 0 -7 6 -3 13 6 9 4 9 -8 -1 -13 -10 -17 -10 -21 0 -4 10 -6 10
-6 -1 -1 -10 -4 -11 -15 -2 -10 8 -16 9 -21 1 -3 -6 -11 -8 -16 -5 -5 4 -9 0
-9 -7 0 -8 -5 -6 -11 5 -6 10 -15 14 -22 10 -16 -10 -34 -13 -87 -15 -25 -1
-51 -6 -57 -11 -8 -6 -13 -6 -13 0 0 5 -7 10 -15 10 -8 0 -12 -4 -9 -9 4 -5 0
-9 -7 -7 -36 4 -60 -2 -53 -13 5 -8 0 -7 -11 2 -10 8 -16 10 -12 4 4 -7 0 -15
-9 -18 -10 -4 -13 -2 -7 7 4 6 -5 4 -20 -6 -15 -10 -32 -15 -37 -12 -6 3 -10
1 -10 -5 0 -6 -4 -9 -9 -5 -5 3 -12 1 -16 -5 -4 -6 -11 -7 -17 -4 -8 5 -9 1
-4 -11 5 -15 4 -16 -9 -5 -11 9 -15 9 -15 1 0 -7 -4 -9 -10 -6 -5 3 -10 -1
-10 -10 0 -9 -4 -13 -10 -10 -5 3 -10 2 -10 -4 0 -6 -8 -8 -17 -4 -10 3 -15 3
-11 -2 10 -11 -20 -38 -33 -29 -7 4 -9 3 -6 -3 3 -5 -3 -17 -14 -26 -10 -9
-19 -12 -19 -7 0 6 -5 10 -12 10 -6 0 -8 -3 -5 -7 4 -3 -1 -15 -10 -25 -16
-18 -16 -19 3 -13 12 4 10 1 -6 -9 -14 -8 -43 -49 -65 -93 -22 -43 -43 -79
-47 -81 -5 -2 -8 -11 -8 -20 0 -15 2 -15 10 -2 8 11 9 7 4 -15 -3 -16 -13 -36
-22 -42 -14 -11 -14 -13 -1 -13 9 0 16 -7 16 -15 0 -8 -5 -11 -10 -8 -6 4 -8
0 -4 -10 4 -10 1 -17 -5 -17 -7 0 -3 -7 8 -16 15 -12 16 -15 2 -10 -13 4 -15
0 -11 -17 3 -12 5 -32 4 -44 0 -13 5 -23 12 -23 8 0 7 -4 -3 -10 -10 -6 -11
-10 -2 -10 6 0 12 -5 12 -11 0 -5 -4 -8 -9 -5 -10 7 -9 -20 2 -30 4 -4 7 -16
7 -26 0 -11 4 -17 8 -14 5 3 9 -1 9 -9 0 -8 -3 -12 -7 -10 -3 2 -7 -5 -7 -16
-2 -17 1 -18 12 -9 11 9 13 7 9 -13 -3 -17 1 -27 12 -31 13 -5 14 -9 4 -21
-10 -12 -9 -16 4 -21 9 -3 16 -15 16 -26 0 -13 4 -17 13 -12 8 5 8 2 -2 -9
-12 -15 -11 -17 5 -17 16 0 17 -2 4 -10 -13 -8 -12 -10 4 -10 11 0 16 -3 13
-7 -4 -3 1 -15 10 -25 16 -18 16 -19 -3 -13 -14 5 -13 3 4 -7 12 -8 19 -17 16
-21 -4 -4 -2 -7 4 -7 7 0 12 -7 12 -15 0 -8 5 -15 11 -15 7 0 9 -9 6 -21 -4
-15 0 -23 14 -26 12 -4 18 -11 15 -20 -3 -8 -1 -11 4 -8 6 3 10 -1 10 -10 0
-9 5 -13 10 -10 6 3 10 -3 10 -13 0 -12 9 -22 22 -25 19 -5 20 -8 7 -24 -7
-10 -10 -15 -5 -11 15 13 45 -11 41 -32 -2 -11 0 -18 6 -15 5 4 9 1 9 -4 0 -6
7 -11 16 -11 8 0 12 -4 9 -10 -3 -5 -1 -10 4 -10 6 0 11 -7 11 -16 0 -9 9 -18
20 -21 21 -6 28 -33 8 -33 -6 0 -8 -3 -5 -6 4 -4 14 -1 24 7 11 9 14 10 9 1
-4 -7 -1 -12 9 -12 9 0 14 -4 10 -9 -3 -6 0 -13 7 -18 7 -4 18 -17 24 -28 6
-11 19 -22 29 -24 27 -5 48 -28 32 -34 -6 -3 -2 -6 11 -6 12 -1 21 -4 21 -8
-3 -20 2 -34 10 -28 6 3 22 -7 37 -22 15 -16 21 -19 13 -8 -13 18 -13 19 3 6
10 -7 18 -19 18 -26 0 -7 8 -19 18 -26 16 -13 16 -13 2 6 -14 18 -13 19 1 8 9
-7 19 -10 23 -6 4 4 4 -1 0 -12 -6 -14 -4 -17 9 -12 10 4 16 2 14 -6 -1 -7 4
-11 11 -9 6 1 12 -3 12 -9 0 -5 4 -8 9 -5 10 7 62 -50 53 -59 -3 -3 2 -3 12 1
13 5 17 4 12 -4 -5 -8 -2 -10 8 -6 11 4 16 0 16 -12 0 -16 2 -17 10 -4 8 13
10 12 10 -2 0 -11 8 -18 18 -18 10 0 27 -7 38 -16 10 -8 13 -12 5 -8 -9 4 -12
3 -8 -3 6 -10 63 -27 79 -24 4 0 4 -7 1 -16 -5 -13 -2 -15 11 -10 11 5 15 3
10 -5 -5 -8 -2 -9 9 -5 11 4 17 1 17 -8 0 -9 6 -12 17 -8 11 4 14 3 9 -5 -6
-11 20 -18 47 -13 5 1 6 -3 2 -9 -3 -5 1 -10 10 -10 10 0 13 -5 9 -12 -5 -8 0
-7 11 2 11 9 16 10 11 3 -4 -8 -1 -13 9 -13 9 0 13 -4 10 -10 -3 -5 0 -7 8 -4
8 3 17 -2 21 -11 3 -9 10 -14 15 -10 5 3 12 1 15 -4 3 -5 15 -7 26 -4 15 4 20
0 20 -13 0 -16 2 -17 10 -4 8 12 10 12 11 -5 0 -12 3 -15 6 -7 4 10 9 9 20 -5
8 -10 12 -12 8 -6 -4 9 -1 11 9 7 9 -3 16 -10 16 -15 0 -5 11 -9 25 -9 14 0
25 -6 25 -12 0 -9 4 -8 10 2 6 10 10 11 10 3 0 -7 9 -13 20 -13 11 0 20 -4 20
-10 0 -5 7 -7 15 -4 10 4 15 0 15 -12 0 -15 2 -16 9 -5 6 9 11 10 15 2 4 -6
12 -11 18 -11 6 0 7 5 2 13 -5 7 -2 6 6 -3 8 -8 22 -15 30 -15 8 0 14 -6 12
-13 -1 -8 2 -11 8 -7 6 3 8 11 5 16 -9 14 5 11 21 -6 19 -18 38 -20 29 -2 -4
6 1 3 9 -7 12 -15 16 -16 16 -5 0 12 2 12 9 0 5 -8 18 -12 30 -8 12 3 24 1 27
-4 3 -5 10 -7 15 -4 5 4 9 1 9 -6 0 -7 2 -10 6 -7 3 3 22 2 42 -3 20 -5 45
-11 55 -14 9 -2 17 1 17 6 0 6 7 4 15 -4 8 -9 24 -13 35 -10 11 3 28 -1 37 -8
15 -13 15 -12 3 11 -13 24 -12 25 7 8 15 -14 22 -15 32 -5 10 9 11 9 6 -5 -7
-17 9 -20 32 -5 7 4 17 0 23 -10 11 -17 11 -17 6 0 -7 22 22 20 42 -3 11 -13
11 -13 7 1 -4 10 0 16 10 16 8 0 15 -5 15 -11 0 -6 5 -4 10 4 9 13 10 13 10 0
0 -13 1 -13 10 0 8 13 10 13 10 1 0 -12 3 -12 12 -3 16 16 31 15 22 0 -5 -9
-2 -9 9 1 14 11 17 11 17 0 1 -9 4 -8 11 4 6 10 15 14 22 10 19 -12 41 -9 55
7 8 8 11 9 7 3 -3 -7 -2 -13 2 -13 5 0 15 6 22 13 8 6 11 7 8 1 -3 -6 0 -11 8
-11 8 0 12 4 9 9 -3 4 6 9 20 9 14 1 31 3 36 4 6 1 17 3 26 4 9 0 12 6 8 13
-5 7 -3 8 5 3 13 -7 60 12 73 30 5 6 8 4 8 -5 1 -11 4 -10 15 4 8 11 15 16 15
10 0 -5 5 -2 10 6 5 8 17 15 27 15 10 0 17 5 16 12 -2 7 4 10 12 6 19 -7 57
25 48 40 -3 5 -1 7 5 3 5 -3 20 6 32 21 12 16 19 23 16 16 -4 -6 -1 -15 5 -19
7 -4 9 -3 5 4 -3 6 0 16 7 24 27 27 68 108 61 119 -4 7 -3 9 3 6 13 -8 46 50
39 68 -3 8 -2 14 2 14 21 -3 24 3 6 16 -19 14 -19 14 1 11 15 -3 21 1 21 14 0
10 -4 17 -8 14 -11 -7 4 70 16 78 8 6 8 8 0 8 -6 0 -11 7 -11 15 0 8 5 15 11
15 6 0 4 5 -4 10 -13 8 -13 13 -2 31 12 19 12 21 -2 16 -10 -4 -13 -1 -9 9 3
8 -1 22 -8 31 -8 9 -9 14 -3 10 7 -4 12 3 12 19 0 19 -4 24 -17 19 -12 -5 -13
-3 -4 5 7 8 8 22 2 42 -4 17 -7 35 -6 42 1 6 -3 10 -10 9 -7 -2 -10 7 -7 23 3
16 1 23 -6 19 -6 -3 -10 3 -10 14 0 12 -6 21 -12 21 -9 0 -8 4 2 10 10 6 11
10 3 10 -7 0 -13 7 -13 15 0 8 -4 15 -10 15 -5 0 -10 7 -10 15 0 8 -4 15 -10
15 -5 0 -10 11 -10 25 0 14 -5 25 -12 25 -6 0 -8 3 -5 7 4 3 -1 12 -11 20 -11
9 -12 12 -2 7 8 -3 3 5 -12 20 -29 28 -37 45 -15 30 7 -5 5 -2 -5 7 -9 9 -14
19 -11 23 4 3 -2 6 -13 6 -16 0 -17 2 -4 10 9 6 10 10 3 10 -17 0 -53 40 -53
58 0 15 -48 62 -62 62 -5 0 -8 4 -8 10 0 5 8 6 17 3 14 -5 13 -3 -3 14 -10 11
-23 18 -29 16 -5 -2 -10 8 -10 22 0 14 3 25 7 25 3 0 4 10 0 22 -3 13 -1 19 5
15 5 -3 26 -7 46 -9 21 -1 37 -5 37 -8 0 -10 33 -9 46 1 6 5 12 21 12 36 3 60
8 68 40 71 20 2 32 -1 32 -9 0 -8 4 -8 15 1 8 7 15 8 15 3 0 -5 9 -9 20 -10
13 -1 21 6 24 20 3 12 17 74 31 137 33 147 45 200 49 225 3 11 10 43 16 70 6
28 13 59 16 70 2 11 11 53 20 93 9 40 14 75 11 78 -3 3 -16 6 -29 8 -13 1 -29
5 -34 9 -6 3 -27 7 -47 9 -21 1 -37 5 -37 8 0 4 -6 7 -12 7 -19 0 -78 12 -123
24 -66 17 -93 18 -99 2 -4 -9 -2 -12 7 -7 8 5 7 2 -2 -9 -7 -9 -10 -17 -6 -17
4 0 2 -7 -5 -15 -7 -8 -9 -15 -5 -15 4 0 1 -8 -6 -17 -12 -14 -12 -16 1 -9 8
4 6 0 -4 -8 -13 -11 -23 -12 -31 -6 -7 5 -16 6 -20 2 -5 -4 -5 -2 -2 5 4 6 1
13 -5 16 -10 3 -10 7 -1 17 6 7 9 19 6 26 -3 8 -1 14 5 14 5 0 8 13 6 30 -2
16 1 32 6 35 6 3 10 17 10 31 0 21 -9 29 -32 25 -5 0 -8 3 -8 9 0 5 -13 8 -30
6 -16 -2 -30 1 -30 6 0 5 -4 7 -9 3 -6 -3 -9 10 -8 30 1 19 6 35 10 35 5 0 5
10 2 21 -5 13 -3 19 3 15 5 -3 10 4 9 17 0 12 2 34 6 49 6 27 6 27 -87 45 -11
2 -49 11 -85 19 -37 9 -79 18 -96 20 -16 3 -43 9 -59 14 -39 13 -46 13 -46 -5
0 -8 -4 -15 -8 -15 -4 0 -9 -10 -10 -22 -3 -56 -8 -74 -22 -86 -8 -8 -9 -11
-2 -7 15 8 16 -17 1 -32 -6 -6 -23 -8 -44 -3 -19 4 -36 5 -39 2 -4 -3 -6 0 -6
6 0 7 -3 11 -7 11 -5 -1 -17 -1 -28 0 -15 1 -17 3 -6 10 7 5 10 14 7 20 -4 6
-2 11 4 11 6 0 8 5 5 10 -4 6 -3 16 2 23 5 7 9 24 8 40 0 15 3 27 7 27 4 0 5
7 2 15 -4 8 -1 15 6 15 6 0 9 4 5 9 -3 5 -38 17 -78 26 -39 9 -79 18 -87 20
-27 7 -212 45 -215 45 -2 0 -6 -7 -9 -16z m1095 -2617 c-10 -9 -11 -8 -5 6 3
10 9 15 12 12 3 -3 0 -11 -7 -18z"/>
<path d="M358 1193 c7 -3 16 -2 19 1 4 3 -2 6 -13 5 -11 0 -14 -3 -6 -6z"/>
<path d="M844 718 c-4 -7 -4 -10 1 -6 4 4 15 2 24 -5 14 -11 14 -10 2 6 -16
20 -18 21 -27 5z"/>
</g>
</svg>
